ply
format ascii 1.0
comment created by MATLAB plywrite
element vertex 398
property float x
property float y
property float z
element face 716
property list uchar short vertex_indices
end_header
-1.709155 0.539465 0.000000 
0.192716 3.368692 0.000000 
-0.818852 -3.668207 0.000000 
0.897865 -1.139933 0.000000 
-0.488780 2.436637 0.000000 
-0.523355 -4.374889 0.000000 
1.602256 1.882288 0.000000 
0.770706 -1.271575 0.000000 
1.795699 2.132206 0.000000 
-1.379926 -0.854103 0.000000 
-2.269800 2.537167 0.000000 
0.650253 -1.745359 0.000000 
-2.214928 -0.052626 0.000000 
-3.119665 0.204257 0.000000 
3.134806 -3.055122 0.000000 
-0.890307 1.175872 0.000000 
-3.581497 1.177558 0.000000 
3.238890 -0.755448 0.000000 
4.143038 1.127751 0.000000 
0.141583 -0.024290 0.000000 
0.598609 1.490173 0.000000 
-1.483604 -2.586677 0.000000 
-1.084474 -0.654668 0.000000 
-0.470010 -0.924060 0.000000 
-2.055599 2.452553 0.000000 
-2.045454 -1.927554 0.000000 
0.996222 -2.463964 0.000000 
2.950242 0.358727 0.000000 
0.184962 0.107626 0.000000 
1.549901 -0.247460 0.000000 
4.755283 1.545085 0.000000 
4.045085 2.938926 0.000000 
2.938926 4.045085 0.000000 
1.545085 4.755283 0.000000 
0.000000 5.000000 0.000000 
-1.545085 4.755283 0.000000 
-2.938926 4.045085 0.000000 
-4.045085 2.938926 0.000000 
-4.755283 1.545085 0.000000 
-5.000000 0.000000 0.000000 
-4.755283 -1.545085 0.000000 
-4.045085 -2.938926 0.000000 
-2.938926 -4.045085 0.000000 
-1.545085 -4.755283 0.000000 
-0.000000 -5.000000 0.000000 
1.545085 -4.755283 0.000000 
2.938926 -4.045085 0.000000 
4.045085 -2.938926 0.000000 
4.755283 -1.545085 0.000000 
5.000000 -0.000000 0.000000 
4.755283 1.545085 0.526316 
4.045085 2.938926 0.526316 
2.938926 4.045085 0.526316 
1.545085 4.755283 0.526316 
0.000000 5.000000 0.526316 
-1.545085 4.755283 0.526316 
-2.938926 4.045085 0.526316 
-4.045085 2.938926 0.526316 
-4.755283 1.545085 0.526316 
-5.000000 0.000000 0.526316 
-4.755283 -1.545085 0.526316 
-4.045085 -2.938926 0.526316 
-2.938926 -4.045085 0.526316 
-1.545085 -4.755283 0.526316 
-0.000000 -5.000000 0.526316 
1.545085 -4.755283 0.526316 
2.938926 -4.045085 0.526316 
4.045085 -2.938926 0.526316 
4.755283 -1.545085 0.526316 
5.000000 -0.000000 0.526316 
4.755283 1.545085 1.052632 
4.045085 2.938926 1.052632 
2.938926 4.045085 1.052632 
1.545085 4.755283 1.052632 
0.000000 5.000000 1.052632 
-1.545085 4.755283 1.052632 
-2.938926 4.045085 1.052632 
-4.045085 2.938926 1.052632 
-4.755283 1.545085 1.052632 
-5.000000 0.000000 1.052632 
-4.755283 -1.545085 1.052632 
-4.045085 -2.938926 1.052632 
-2.938926 -4.045085 1.052632 
-1.545085 -4.755283 1.052632 
-0.000000 -5.000000 1.052632 
1.545085 -4.755283 1.052632 
2.938926 -4.045085 1.052632 
4.045085 -2.938926 1.052632 
4.755283 -1.545085 1.052632 
5.000000 -0.000000 1.052632 
4.755283 1.545085 1.578947 
4.045085 2.938926 1.578947 
2.938926 4.045085 1.578947 
1.545085 4.755283 1.578947 
0.000000 5.000000 1.578947 
-1.545085 4.755283 1.578947 
-2.938926 4.045085 1.578947 
-4.045085 2.938926 1.578947 
-4.755283 1.545085 1.578947 
-5.000000 0.000000 1.578947 
-4.755283 -1.545085 1.578947 
-4.045085 -2.938926 1.578947 
-2.938926 -4.045085 1.578947 
-1.545085 -4.755283 1.578947 
-0.000000 -5.000000 1.578947 
1.545085 -4.755283 1.578947 
2.938926 -4.045085 1.578947 
4.045085 -2.938926 1.578947 
4.755283 -1.545085 1.578947 
5.000000 -0.000000 1.578947 
4.755283 1.545085 2.105263 
4.045085 2.938926 2.105263 
2.938926 4.045085 2.105263 
1.545085 4.755283 2.105263 
0.000000 5.000000 2.105263 
-1.545085 4.755283 2.105263 
-2.938926 4.045085 2.105263 
-4.045085 2.938926 2.105263 
-4.755283 1.545085 2.105263 
-5.000000 0.000000 2.105263 
-4.755283 -1.545085 2.105263 
-4.045085 -2.938926 2.105263 
-2.938926 -4.045085 2.105263 
-1.545085 -4.755283 2.105263 
-0.000000 -5.000000 2.105263 
1.545085 -4.755283 2.105263 
2.938926 -4.045085 2.105263 
4.045085 -2.938926 2.105263 
4.755283 -1.545085 2.105263 
5.000000 -0.000000 2.105263 
4.755283 1.545085 2.631579 
4.045085 2.938926 2.631579 
2.938926 4.045085 2.631579 
1.545085 4.755283 2.631579 
0.000000 5.000000 2.631579 
-1.545085 4.755283 2.631579 
-2.938926 4.045085 2.631579 
-4.045085 2.938926 2.631579 
-4.755283 1.545085 2.631579 
-5.000000 0.000000 2.631579 
-4.755283 -1.545085 2.631579 
-4.045085 -2.938926 2.631579 
-2.938926 -4.045085 2.631579 
-1.545085 -4.755283 2.631579 
-0.000000 -5.000000 2.631579 
1.545085 -4.755283 2.631579 
2.938926 -4.045085 2.631579 
4.045085 -2.938926 2.631579 
4.755283 -1.545085 2.631579 
5.000000 -0.000000 2.631579 
4.755283 1.545085 3.157895 
4.045085 2.938926 3.157895 
2.938926 4.045085 3.157895 
1.545085 4.755283 3.157895 
0.000000 5.000000 3.157895 
-1.545085 4.755283 3.157895 
-2.938926 4.045085 3.157895 
-4.045085 2.938926 3.157895 
-4.755283 1.545085 3.157895 
-5.000000 0.000000 3.157895 
-4.755283 -1.545085 3.157895 
-4.045085 -2.938926 3.157895 
-2.938926 -4.045085 3.157895 
-1.545085 -4.755283 3.157895 
-0.000000 -5.000000 3.157895 
1.545085 -4.755283 3.157895 
2.938926 -4.045085 3.157895 
4.045085 -2.938926 3.157895 
4.755283 -1.545085 3.157895 
5.000000 -0.000000 3.157895 
4.755283 1.545085 3.684211 
4.045085 2.938926 3.684211 
2.938926 4.045085 3.684211 
1.545085 4.755283 3.684211 
0.000000 5.000000 3.684211 
-1.545085 4.755283 3.684211 
-2.938926 4.045085 3.684211 
-4.045085 2.938926 3.684211 
-4.755283 1.545085 3.684211 
-5.000000 0.000000 3.684211 
-4.755283 -1.545085 3.684211 
-4.045085 -2.938926 3.684211 
-2.938926 -4.045085 3.684211 
-1.545085 -4.755283 3.684211 
-0.000000 -5.000000 3.684211 
1.545085 -4.755283 3.684211 
2.938926 -4.045085 3.684211 
4.045085 -2.938926 3.684211 
4.755283 -1.545085 3.684211 
5.000000 -0.000000 3.684211 
4.755283 1.545085 4.210526 
4.045085 2.938926 4.210526 
2.938926 4.045085 4.210526 
1.545085 4.755283 4.210526 
0.000000 5.000000 4.210526 
-1.545085 4.755283 4.210526 
-2.938926 4.045085 4.210526 
-4.045085 2.938926 4.210526 
-4.755283 1.545085 4.210526 
-5.000000 0.000000 4.210526 
-4.755283 -1.545085 4.210526 
-4.045085 -2.938926 4.210526 
-2.938926 -4.045085 4.210526 
-1.545085 -4.755283 4.210526 
-0.000000 -5.000000 4.210526 
1.545085 -4.755283 4.210526 
2.938926 -4.045085 4.210526 
4.045085 -2.938926 4.210526 
4.755283 -1.545085 4.210526 
5.000000 -0.000000 4.210526 
4.755283 1.545085 4.736842 
4.045085 2.938926 4.736842 
2.938926 4.045085 4.736842 
1.545085 4.755283 4.736842 
0.000000 5.000000 4.736842 
-1.545085 4.755283 4.736842 
-2.938926 4.045085 4.736842 
-4.045085 2.938926 4.736842 
-4.755283 1.545085 4.736842 
-5.000000 0.000000 4.736842 
-4.755283 -1.545085 4.736842 
-4.045085 -2.938926 4.736842 
-2.938926 -4.045085 4.736842 
-1.545085 -4.755283 4.736842 
-0.000000 -5.000000 4.736842 
1.545085 -4.755283 4.736842 
2.938926 -4.045085 4.736842 
4.045085 -2.938926 4.736842 
4.755283 -1.545085 4.736842 
5.000000 -0.000000 4.736842 
1.666667 2.886751 5.263158 
-1.666667 2.886751 5.263158 
-3.333333 0.000000 5.263158 
-1.666667 -2.886751 5.263158 
1.666667 -2.886751 5.263158 
3.333333 -0.000000 5.263158 
-0.416667 0.721688 5.789474 
-0.416667 -0.721688 5.789474 
0.833333 -0.000000 5.789474 
-0.416667 0.721688 6.315789 
-0.416667 -0.721688 6.315789 
0.833333 -0.000000 6.315789 
1.666667 2.886751 6.842105 
-1.666667 2.886751 6.842105 
-3.333333 0.000000 6.842105 
-1.666667 -2.886751 6.842105 
1.666667 -2.886751 6.842105 
3.333333 -0.000000 6.842105 
4.755283 1.545085 7.368421 
4.045085 2.938926 7.368421 
2.938926 4.045085 7.368421 
1.545085 4.755283 7.368421 
0.000000 5.000000 7.368421 
-1.545085 4.755283 7.368421 
-2.938926 4.045085 7.368421 
-4.045085 2.938926 7.368421 
-4.755283 1.545085 7.368421 
-5.000000 0.000000 7.368421 
-4.755283 -1.545085 7.368421 
-4.045085 -2.938926 7.368421 
-2.938926 -4.045085 7.368421 
-1.545085 -4.755283 7.368421 
-0.000000 -5.000000 7.368421 
1.545085 -4.755283 7.368421 
2.938926 -4.045085 7.368421 
4.045085 -2.938926 7.368421 
4.755283 -1.545085 7.368421 
5.000000 -0.000000 7.368421 
4.755283 1.545085 7.894737 
4.045085 2.938926 7.894737 
2.938926 4.045085 7.894737 
1.545085 4.755283 7.894737 
0.000000 5.000000 7.894737 
-1.545085 4.755283 7.894737 
-2.938926 4.045085 7.894737 
-4.045085 2.938926 7.894737 
-4.755283 1.545085 7.894737 
-5.000000 0.000000 7.894737 
-4.755283 -1.545085 7.894737 
-4.045085 -2.938926 7.894737 
-2.938926 -4.045085 7.894737 
-1.545085 -4.755283 7.894737 
-0.000000 -5.000000 7.894737 
1.545085 -4.755283 7.894737 
2.938926 -4.045085 7.894737 
4.045085 -2.938926 7.894737 
4.755283 -1.545085 7.894737 
5.000000 -0.000000 7.894737 
4.755283 1.545085 8.421053 
4.045085 2.938926 8.421053 
2.938926 4.045085 8.421053 
1.545085 4.755283 8.421053 
0.000000 5.000000 8.421053 
-1.545085 4.755283 8.421053 
-2.938926 4.045085 8.421053 
-4.045085 2.938926 8.421053 
-4.755283 1.545085 8.421053 
-5.000000 0.000000 8.421053 
-4.755283 -1.545085 8.421053 
-4.045085 -2.938926 8.421053 
-2.938926 -4.045085 8.421053 
-1.545085 -4.755283 8.421053 
-0.000000 -5.000000 8.421053 
1.545085 -4.755283 8.421053 
2.938926 -4.045085 8.421053 
4.045085 -2.938926 8.421053 
4.755283 -1.545085 8.421053 
5.000000 -0.000000 8.421053 
4.755283 1.545085 8.947368 
4.045085 2.938926 8.947368 
2.938926 4.045085 8.947368 
1.545085 4.755283 8.947368 
0.000000 5.000000 8.947368 
-1.545085 4.755283 8.947368 
-2.938926 4.045085 8.947368 
-4.045085 2.938926 8.947368 
-4.755283 1.545085 8.947368 
-5.000000 0.000000 8.947368 
-4.755283 -1.545085 8.947368 
-4.045085 -2.938926 8.947368 
-2.938926 -4.045085 8.947368 
-1.545085 -4.755283 8.947368 
-0.000000 -5.000000 8.947368 
1.545085 -4.755283 8.947368 
2.938926 -4.045085 8.947368 
4.045085 -2.938926 8.947368 
4.755283 -1.545085 8.947368 
5.000000 -0.000000 8.947368 
4.755283 1.545085 9.473684 
4.045085 2.938926 9.473684 
2.938926 4.045085 9.473684 
1.545085 4.755283 9.473684 
0.000000 5.000000 9.473684 
-1.545085 4.755283 9.473684 
-2.938926 4.045085 9.473684 
-4.045085 2.938926 9.473684 
-4.755283 1.545085 9.473684 
-5.000000 0.000000 9.473684 
-4.755283 -1.545085 9.473684 
-4.045085 -2.938926 9.473684 
-2.938926 -4.045085 9.473684 
-1.545085 -4.755283 9.473684 
-0.000000 -5.000000 9.473684 
1.545085 -4.755283 9.473684 
2.938926 -4.045085 9.473684 
4.045085 -2.938926 9.473684 
4.755283 -1.545085 9.473684 
5.000000 -0.000000 9.473684 
4.755283 1.545085 10.000000 
4.045085 2.938926 10.000000 
2.938926 4.045085 10.000000 
1.545085 4.755283 10.000000 
0.000000 5.000000 10.000000 
-1.545085 4.755283 10.000000 
-2.938926 4.045085 10.000000 
-4.045085 2.938926 10.000000 
-4.755283 1.545085 10.000000 
-5.000000 0.000000 10.000000 
-4.755283 -1.545085 10.000000 
-4.045085 -2.938926 10.000000 
-2.938926 -4.045085 10.000000 
-1.545085 -4.755283 10.000000 
-0.000000 -5.000000 10.000000 
1.545085 -4.755283 10.000000 
2.938926 -4.045085 10.000000 
4.045085 -2.938926 10.000000 
4.755283 -1.545085 10.000000 
5.000000 -0.000000 10.000000 
-1.709155 0.539465 10.000000 
0.192716 3.368692 10.000000 
-0.818852 -3.668207 10.000000 
0.897865 -1.139933 10.000000 
-0.488780 2.436637 10.000000 
-0.523355 -4.374889 10.000000 
1.602256 1.882288 10.000000 
0.770706 -1.271575 10.000000 
1.795699 2.132206 10.000000 
-1.379926 -0.854103 10.000000 
-2.269800 2.537167 10.000000 
0.650253 -1.745359 10.000000 
-2.214928 -0.052626 10.000000 
-3.119665 0.204257 10.000000 
3.134806 -3.055122 10.000000 
-0.890307 1.175872 10.000000 
-3.581497 1.177558 10.000000 
3.238890 -0.755448 10.000000 
4.143038 1.127751 10.000000 
0.141583 -0.024290 10.000000 
0.598609 1.490173 10.000000 
-1.483604 -2.586677 10.000000 
-1.084474 -0.654668 10.000000 
-0.470010 -0.924060 10.000000 
-2.055599 2.452553 10.000000 
-2.045454 -1.927554 10.000000 
0.996222 -2.463964 10.000000 
2.950242 0.358727 10.000000 
0.184962 0.107626 10.000000 
1.549901 -0.247460 10.000000 
3 0 12 13 
3 0 13 16 
3 0 15 22 
3 0 16 24 
3 0 22 12 
3 0 24 15 
3 1 4 35 
3 1 6 20 
3 1 8 6 
3 1 20 4 
3 1 33 8 
3 1 34 33 
3 1 35 34 
3 2 5 43 
3 2 11 26 
3 2 21 11 
3 2 26 5 
3 2 42 21 
3 2 43 42 
3 3 7 19 
3 3 11 7 
3 3 17 26 
3 3 19 29 
3 3 26 11 
3 3 29 17 
3 4 15 24 
3 4 20 15 
3 4 24 35 
3 6 8 27 
3 6 27 29 
3 6 29 20 
3 7 11 23 
3 7 23 19 
3 8 18 27 
3 8 31 18 
3 8 32 31 
3 8 33 32 
3 9 12 22 
3 9 21 25 
3 9 22 23 
3 9 23 21 
3 9 25 12 
3 11 21 23 
3 12 25 13 
3 13 25 40 
3 13 39 16 
3 13 40 39 
3 15 19 22 
3 15 20 28 
3 15 28 19 
3 16 38 37 
3 16 39 38 
3 17 27 49 
3 17 29 27 
3 17 48 47 
3 17 49 48 
3 19 23 22 
3 19 28 29 
3 20 29 28 
3 21 42 25 
3 25 41 40 
3 25 42 41 
3 26 46 45 
3 348 349 386 
3 348 386 367 
3 349 350 376 
3 349 376 386 
3 350 351 376 
3 351 352 369 
3 351 369 376 
3 352 353 369 
3 353 354 378 
3 353 372 369 
3 353 378 392 
3 353 392 372 
3 354 355 378 
3 355 356 384 
3 355 384 378 
3 356 357 384 
3 357 358 381 
3 357 381 384 
3 358 359 393 
3 358 393 381 
3 359 360 393 
3 360 361 370 
3 360 370 389 
3 360 389 393 
3 361 362 373 
3 361 373 370 
3 362 363 373 
3 363 364 394 
3 363 394 373 
3 364 365 382 
3 364 382 394 
3 365 366 385 
3 365 385 382 
3 366 367 385 
3 367 386 395 
3 367 395 385 
3 368 380 390 
3 368 381 380 
3 368 383 392 
3 368 384 381 
3 368 390 383 
3 368 392 384 
3 369 372 388 
3 369 374 376 
3 369 388 374 
3 370 373 394 
3 370 379 389 
3 370 394 379 
3 371 375 379 
3 371 379 394 
3 371 385 397 
3 371 387 375 
3 371 394 385 
3 371 397 387 
3 372 383 388 
3 372 392 383 
3 374 388 397 
3 374 395 376 
3 374 397 395 
3 375 387 391 
3 375 391 379 
3 376 395 386 
3 377 380 393 
3 377 389 391 
3 377 390 380 
3 377 391 390 
3 377 393 389 
3 378 384 392 
3 379 391 389 
3 380 381 393 
3 382 385 394 
3 383 387 396 
3 383 390 387 
3 383 396 388 
3 385 395 397 
3 387 390 391 
3 387 397 396 
3 388 396 397 
3 5 26 45 
3 5 44 43 
3 5 45 44 
3 10 16 37 
3 10 24 16 
3 10 35 24 
3 10 36 35 
3 10 37 36 
3 14 17 47 
3 14 26 17 
3 14 46 26 
3 14 47 46 
3 18 30 49 
3 18 31 30 
3 18 49 27 
3 30 31 51 
3 30 50 49 
3 30 51 50 
3 31 32 52 
3 31 52 51 
3 32 33 53 
3 32 53 52 
3 33 34 54 
3 33 54 53 
3 34 35 55 
3 34 55 54 
3 35 36 56 
3 35 56 55 
3 36 37 57 
3 36 57 56 
3 37 38 58 
3 37 58 57 
3 38 39 59 
3 38 59 58 
3 39 40 59 
3 40 41 60 
3 40 60 59 
3 41 42 61 
3 41 61 60 
3 42 43 62 
3 42 62 61 
3 43 44 63 
3 43 63 62 
3 44 45 64 
3 44 64 63 
3 45 46 65 
3 45 65 64 
3 46 47 66 
3 46 66 65 
3 47 48 67 
3 47 67 66 
3 48 49 68 
3 48 68 67 
3 49 50 69 
3 49 69 68 
3 50 51 71 
3 50 70 69 
3 50 71 70 
3 51 52 72 
3 51 72 71 
3 52 53 73 
3 52 73 72 
3 53 54 74 
3 53 74 73 
3 54 55 75 
3 54 75 74 
3 55 56 76 
3 55 76 75 
3 56 57 77 
3 56 77 76 
3 57 58 78 
3 57 78 77 
3 58 59 79 
3 58 79 78 
3 59 60 79 
3 60 61 80 
3 60 80 79 
3 61 62 81 
3 61 81 80 
3 62 63 82 
3 62 82 81 
3 63 64 83 
3 63 83 82 
3 64 65 84 
3 64 84 83 
3 65 66 85 
3 65 85 84 
3 66 67 86 
3 66 86 85 
3 67 68 87 
3 67 87 86 
3 68 69 88 
3 68 88 87 
3 69 70 89 
3 69 89 88 
3 70 71 91 
3 70 90 89 
3 70 91 90 
3 71 72 92 
3 71 92 91 
3 72 73 93 
3 72 93 92 
3 73 74 94 
3 73 94 93 
3 74 75 95 
3 74 95 94 
3 75 76 96 
3 75 96 95 
3 76 77 97 
3 76 97 96 
3 77 78 98 
3 77 98 97 
3 78 79 99 
3 78 99 98 
3 79 80 99 
3 80 81 100 
3 80 100 99 
3 81 82 101 
3 81 101 100 
3 82 83 102 
3 82 102 101 
3 83 84 103 
3 83 103 102 
3 84 85 104 
3 84 104 103 
3 85 86 105 
3 85 105 104 
3 86 87 106 
3 86 106 105 
3 87 88 107 
3 87 107 106 
3 88 89 108 
3 88 108 107 
3 89 90 109 
3 89 109 108 
3 90 91 111 
3 90 110 109 
3 90 111 110 
3 91 92 112 
3 91 112 111 
3 92 93 113 
3 92 113 112 
3 93 94 114 
3 93 114 113 
3 94 95 115 
3 94 115 114 
3 95 96 116 
3 95 116 115 
3 96 97 117 
3 96 117 116 
3 97 98 118 
3 97 118 117 
3 98 99 119 
3 98 119 118 
3 99 100 119 
3 100 101 120 
3 100 120 119 
3 101 102 121 
3 101 121 120 
3 102 103 122 
3 102 122 121 
3 103 104 123 
3 103 123 122 
3 104 105 124 
3 104 124 123 
3 105 106 125 
3 105 125 124 
3 106 107 126 
3 106 126 125 
3 107 108 127 
3 107 127 126 
3 108 109 128 
3 108 128 127 
3 109 110 129 
3 109 129 128 
3 110 111 131 
3 110 130 129 
3 110 131 130 
3 111 112 132 
3 111 132 131 
3 112 113 133 
3 112 133 132 
3 113 114 134 
3 113 134 133 
3 114 115 135 
3 114 135 134 
3 115 116 136 
3 115 136 135 
3 116 117 137 
3 116 137 136 
3 117 118 138 
3 117 138 137 
3 118 119 139 
3 118 139 138 
3 119 120 139 
3 120 121 140 
3 120 140 139 
3 121 122 141 
3 121 141 140 
3 122 123 142 
3 122 142 141 
3 123 124 143 
3 123 143 142 
3 124 125 144 
3 124 144 143 
3 125 126 145 
3 125 145 144 
3 126 127 146 
3 126 146 145 
3 127 128 147 
3 127 147 146 
3 128 129 148 
3 128 148 147 
3 129 130 149 
3 129 149 148 
3 130 131 151 
3 130 150 149 
3 130 151 150 
3 131 132 152 
3 131 152 151 
3 132 133 153 
3 132 153 152 
3 133 134 154 
3 133 154 153 
3 134 135 155 
3 134 155 154 
3 135 136 156 
3 135 156 155 
3 136 137 157 
3 136 157 156 
3 137 138 158 
3 137 158 157 
3 138 139 159 
3 138 159 158 
3 139 140 159 
3 140 141 160 
3 140 160 159 
3 141 142 161 
3 141 161 160 
3 142 143 162 
3 142 162 161 
3 143 144 163 
3 143 163 162 
3 144 145 164 
3 144 164 163 
3 145 146 165 
3 145 165 164 
3 146 147 166 
3 146 166 165 
3 147 148 167 
3 147 167 166 
3 148 149 168 
3 148 168 167 
3 149 150 169 
3 149 169 168 
3 150 151 171 
3 150 170 169 
3 150 171 170 
3 151 152 172 
3 151 172 171 
3 152 153 173 
3 152 173 172 
3 153 154 174 
3 153 174 173 
3 154 155 175 
3 154 175 174 
3 155 156 176 
3 155 176 175 
3 156 157 177 
3 156 177 176 
3 157 158 178 
3 157 178 177 
3 158 159 179 
3 158 179 178 
3 159 160 179 
3 160 161 180 
3 160 180 179 
3 161 162 181 
3 161 181 180 
3 162 163 182 
3 162 182 181 
3 163 164 183 
3 163 183 182 
3 164 165 184 
3 164 184 183 
3 165 166 185 
3 165 185 184 
3 166 167 186 
3 166 186 185 
3 167 168 187 
3 167 187 186 
3 168 169 188 
3 168 188 187 
3 169 170 189 
3 169 189 188 
3 170 171 191 
3 170 190 189 
3 170 191 190 
3 171 172 192 
3 171 192 191 
3 172 173 193 
3 172 193 192 
3 173 174 194 
3 173 194 193 
3 174 175 195 
3 174 195 194 
3 175 176 196 
3 175 196 195 
3 176 177 197 
3 176 197 196 
3 177 178 198 
3 177 198 197 
3 178 179 199 
3 178 199 198 
3 179 180 199 
3 180 181 200 
3 180 200 199 
3 181 182 201 
3 181 201 200 
3 182 183 202 
3 182 202 201 
3 183 184 203 
3 183 203 202 
3 184 185 204 
3 184 204 203 
3 185 186 205 
3 185 205 204 
3 186 187 206 
3 186 206 205 
3 187 188 207 
3 187 207 206 
3 188 189 208 
3 188 208 207 
3 189 190 209 
3 189 209 208 
3 190 191 211 
3 190 210 209 
3 190 211 210 
3 191 192 212 
3 191 212 211 
3 192 193 213 
3 192 213 212 
3 193 194 214 
3 193 214 213 
3 194 195 215 
3 194 215 214 
3 195 196 216 
3 195 216 215 
3 196 197 217 
3 196 217 216 
3 197 198 218 
3 197 218 217 
3 198 199 219 
3 198 219 218 
3 199 200 219 
3 200 201 220 
3 200 220 219 
3 201 202 221 
3 201 221 220 
3 202 203 222 
3 202 222 221 
3 203 204 223 
3 203 223 222 
3 204 205 224 
3 204 224 223 
3 205 206 225 
3 205 225 224 
3 206 207 226 
3 206 226 225 
3 207 208 227 
3 207 227 226 
3 208 209 228 
3 208 228 227 
3 209 210 229 
3 209 229 228 
3 250 251 271 
3 250 271 270 
3 251 252 272 
3 251 272 271 
3 252 253 273 
3 252 273 272 
3 253 254 274 
3 253 274 273 
3 254 255 275 
3 254 275 274 
3 255 256 276 
3 255 276 275 
3 256 257 277 
3 256 277 276 
3 257 258 277 
3 258 259 278 
3 258 278 277 
3 259 260 279 
3 259 279 278 
3 271 272 292 
3 271 292 291 
3 272 273 293 
3 272 293 292 
3 273 274 294 
3 273 294 293 
3 274 275 295 
3 274 295 294 
3 275 276 296 
3 275 296 295 
3 276 277 297 
3 276 297 296 
3 277 278 297 
3 278 279 298 
3 278 298 297 
3 279 280 299 
3 279 299 298 
3 292 293 313 
3 292 313 312 
3 293 294 314 
3 293 314 313 
3 294 295 315 
3 294 315 314 
3 295 296 316 
3 295 316 315 
3 296 297 317 
3 296 317 316 
3 297 298 317 
3 298 299 318 
3 298 318 317 
3 299 300 319 
3 299 319 318 
3 309 310 330 
3 309 330 329 
3 310 311 331 
3 310 331 330 
3 311 312 332 
3 311 332 331 
3 312 313 333 
3 312 333 332 
3 313 314 334 
3 313 334 333 
3 314 315 335 
3 314 335 334 
3 315 316 336 
3 315 336 335 
3 316 317 337 
3 316 337 336 
3 317 318 337 
3 318 319 338 
3 318 338 337 
3 319 320 339 
3 319 339 338 
3 328 329 349 
3 328 348 347 
3 328 349 348 
3 329 330 350 
3 329 350 349 
3 330 331 351 
3 330 351 350 
3 331 332 352 
3 331 352 351 
3 332 333 353 
3 332 353 352 
3 333 334 354 
3 333 354 353 
3 334 335 355 
3 334 355 354 
3 335 336 356 
3 335 356 355 
3 336 337 357 
3 336 357 356 
3 337 338 357 
3 338 339 358 
3 338 358 357 
3 248 249 269 
3 248 268 267 
3 248 269 268 
3 249 250 270 
3 249 270 269 
3 260 261 280 
3 260 280 279 
3 261 262 281 
3 261 281 280 
3 262 263 282 
3 262 282 281 
3 263 264 283 
3 263 283 282 
3 264 265 284 
3 264 284 283 
3 265 266 285 
3 265 285 284 
3 266 267 286 
3 266 286 285 
3 267 268 287 
3 267 287 286 
3 268 269 289 
3 268 288 287 
3 268 289 288 
3 269 270 290 
3 269 290 289 
3 270 271 291 
3 270 291 290 
3 280 281 300 
3 280 300 299 
3 281 282 301 
3 281 301 300 
3 282 283 302 
3 282 302 301 
3 283 284 303 
3 283 303 302 
3 284 285 304 
3 284 304 303 
3 285 286 305 
3 285 305 304 
3 286 287 306 
3 286 306 305 
3 287 288 307 
3 287 307 306 
3 288 289 309 
3 288 308 307 
3 288 309 308 
3 289 290 310 
3 289 310 309 
3 290 291 311 
3 290 311 310 
3 291 292 312 
3 291 312 311 
3 300 301 320 
3 300 320 319 
3 301 302 321 
3 301 321 320 
3 302 303 322 
3 302 322 321 
3 303 304 323 
3 303 323 322 
3 304 305 324 
3 304 324 323 
3 305 306 325 
3 305 325 324 
3 306 307 326 
3 306 326 325 
3 307 308 327 
3 307 327 326 
3 308 309 329 
3 308 328 327 
3 308 329 328 
3 320 321 340 
3 320 340 339 
3 321 322 341 
3 321 341 340 
3 322 323 342 
3 322 342 341 
3 323 324 343 
3 323 343 342 
3 324 325 344 
3 324 344 343 
3 325 326 345 
3 325 345 344 
3 326 327 346 
3 326 346 345 
3 327 328 347 
3 327 347 346 
3 339 340 359 
3 339 359 358 
3 340 341 360 
3 340 360 359 
3 341 342 361 
3 341 361 360 
3 342 343 362 
3 342 362 361 
3 343 344 363 
3 343 363 362 
3 344 345 364 
3 344 364 363 
3 345 346 365 
3 345 365 364 
3 346 347 366 
3 346 366 365 
3 347 348 367 
3 347 367 366 
